<svg width="74" height="74" viewBox="0 0 74 74" fill="none" xmlns="http://www.w3.org/2000/svg">
<path d="M31.8663 43.6002L23.8913 35.6252C23.2191 34.9529 22.3941 34.6168 21.4163 34.6168C20.4386 34.6168 19.583 34.9835 18.8497 35.7168C18.1775 36.389 17.8413 37.2446 17.8413 38.2835C17.8413 39.3224 18.1775 40.1779 18.8497 40.8502L29.2997 51.3002C29.9719 51.9724 30.8275 52.3085 31.8663 52.3085C32.9052 52.3085 33.7608 51.9724 34.433 51.3002L55.2413 30.4918C55.9136 29.8196 56.2497 28.9946 56.2497 28.0168C56.2497 27.0391 55.883 26.1835 55.1497 25.4502C54.4775 24.7779 53.6219 24.4418 52.583 24.4418C51.5441 24.4418 50.6886 24.7779 50.0163 25.4502L31.8663 43.6002ZM36.9997 73.6668C31.9275 73.6668 27.1608 72.7037 22.6997 70.7775C18.2386 68.8513 14.358 66.2394 11.058 62.9418C7.75801 59.6418 5.14612 55.7613 3.22234 51.3002C1.29856 46.839 0.335452 42.0724 0.333008 37.0002C0.333008 31.9279 1.29612 27.1613 3.22234 22.7002C5.14856 18.2391 7.76045 14.3585 11.058 11.0585C14.358 7.7585 18.2386 5.14661 22.6997 3.22283C27.1608 1.29905 31.9275 0.335941 36.9997 0.333496C42.0719 0.333496 46.8386 1.29661 51.2997 3.22283C55.7608 5.14905 59.6413 7.76094 62.9413 11.0585C66.2413 14.3585 68.8544 18.2391 70.7807 22.7002C72.7069 27.1613 73.6688 31.9279 73.6663 37.0002C73.6663 42.0724 72.7032 46.839 70.777 51.3002C68.8508 55.7613 66.2389 59.6418 62.9413 62.9418C59.6413 66.2418 55.7608 68.8549 51.2997 70.7812C46.8386 72.7074 42.0719 73.6693 36.9997 73.6668Z" fill="#D9D9D9"/>
</svg>
