<svg width="49" height="43" viewBox="0 0 49 43" fill="none" xmlns="http://www.w3.org/2000/svg">
<path d="M8.75001 36.875V39.5C8.75001 40.2438 8.49801 40.8676 7.99401 41.3716C7.49001 41.8756 6.86701 42.1268 6.12501 42.125H3.50001C2.75626 42.125 2.13238 41.873 1.62838 41.369C1.12438 40.865 0.873259 40.242 0.875009 39.5V18.5L6.38751 2.75C6.65001 1.9625 7.11988 1.32813 7.79713 0.846875C8.47438 0.365625 9.22951 0.125 10.0625 0.125H38.9375C39.7688 0.125 40.5239 0.365625 41.2029 0.846875C41.8819 1.32813 42.3518 1.9625 42.6125 2.75L48.125 18.5V39.5C48.125 40.2438 47.8739 40.8676 47.3716 41.3716C46.8694 41.8756 46.2455 42.1268 45.5 42.125H42.875C42.1313 42.125 41.5074 41.873 41.0034 41.369C40.4994 40.865 40.2483 40.242 40.25 39.5V36.875H8.75001ZM8.22501 13.25H40.775L38.0188 5.375H10.9813L8.22501 13.25ZM12.6875 29C13.7813 29 14.7114 28.6168 15.4779 27.8503C16.2444 27.0838 16.6268 26.1545 16.625 25.0625C16.625 23.9688 16.2418 23.0386 15.4753 22.2721C14.7088 21.5056 13.7795 21.1232 12.6875 21.125C11.5938 21.125 10.6636 21.5082 9.89713 22.2747C9.13063 23.0412 8.74826 23.9705 8.75001 25.0625C8.75001 26.1562 9.13326 27.0864 9.89976 27.8529C10.6663 28.6194 11.5955 29.0018 12.6875 29ZM36.3125 29C37.4063 29 38.3364 28.6168 39.1029 27.8503C39.8694 27.0838 40.2518 26.1545 40.25 25.0625C40.25 23.9688 39.8668 23.0386 39.1003 22.2721C38.3338 21.5056 37.4045 21.1232 36.3125 21.125C35.2188 21.125 34.2886 21.5082 33.5221 22.2747C32.7556 23.0412 32.3733 23.9705 32.375 25.0625C32.375 26.1562 32.7583 27.0864 33.5248 27.8529C34.2913 28.6194 35.2205 29.0018 36.3125 29ZM6.12501 31.625H42.875V18.5H6.12501V31.625Z" fill="black"/>
</svg>
