<svg width="29" height="27" viewBox="0 0 29 27" fill="none" xmlns="http://www.w3.org/2000/svg">
<path d="M0 26.625V0.375H17.5V13.5H22.75V24.4375H26.25V12.4792C25.9875 12.6007 25.7104 12.6799 25.4187 12.7169C25.1271 12.7538 24.8208 12.7718 24.5 12.7708C23.275 12.7708 22.2396 12.4184 21.3938 11.7135C20.5479 11.0087 20.125 10.1458 20.125 9.125C20.125 8.34722 20.3805 7.64819 20.8915 7.02792C21.4025 6.40764 22.0803 5.96431 22.925 5.69792L19.25 2.63542L21.0875 1.10417L27.5625 6.35417C28 6.71875 28.3284 7.1441 28.5477 7.63021C28.7671 8.11632 28.8762 8.61458 28.875 9.125V26.625H20.125V15.6875H17.5V26.625H0ZM3.5 10.5833H14V3.29167H3.5V10.5833ZM24.5 10.5833C24.9958 10.5833 25.4117 10.4433 25.7477 10.1633C26.0837 9.88333 26.2512 9.53722 26.25 9.125C26.25 8.71181 26.082 8.36521 25.746 8.08521C25.41 7.80521 24.9947 7.66569 24.5 7.66667C24.0042 7.66667 23.5883 7.80667 23.2523 8.08667C22.9163 8.36667 22.7488 8.71278 22.75 9.125C22.75 9.53819 22.918 9.88479 23.254 10.1648C23.59 10.4448 24.0053 10.5843 24.5 10.5833Z" fill="black"/>
</svg>
