<svg width="18" height="29" viewBox="0 0 18 29" fill="none" xmlns="http://www.w3.org/2000/svg">
<path d="M7.29336 28.375V25.0604C5.74753 24.7521 4.41286 24.1611 3.28936 23.2875C2.16586 22.4139 1.34219 21.1806 0.818359 19.5875L4.05586 18.4312C4.49336 19.6646 5.14261 20.6024 6.00361 21.2448C6.86461 21.8872 7.99453 22.2083 9.39336 22.2083C10.5892 22.2083 11.603 21.9704 12.4349 21.4945C13.2667 21.0187 13.682 20.2802 13.6809 19.2792C13.6809 18.3799 13.36 17.6671 12.7184 17.1409C12.0767 16.6147 10.5892 16.017 8.25586 15.3479C5.74753 14.6542 4.02669 13.8253 3.09336 12.8612C2.16003 11.8972 1.69336 10.7219 1.69336 9.33542C1.69336 7.66528 2.30586 6.36771 3.53086 5.44271C4.75586 4.51771 6.01003 3.99097 7.29336 3.8625V0.625H10.7934V3.8625C12.2517 4.06806 13.4551 4.53724 14.4036 5.27004C15.3521 6.00285 16.0445 6.89547 16.4809 7.94792L13.2434 9.18125C12.8934 8.35903 12.3975 7.74236 11.7559 7.33125C11.1142 6.92014 10.2392 6.71458 9.13086 6.71458C7.84753 6.71458 6.87044 6.96536 6.19961 7.46692C5.52878 7.96847 5.19336 8.5913 5.19336 9.33542C5.19336 10.1833 5.63086 10.8514 6.50586 11.3396C7.38086 11.8278 8.89753 12.3417 11.0559 12.8812C13.0684 13.3951 14.5926 14.2112 15.6286 15.3294C16.6646 16.4476 17.182 17.7385 17.1809 19.2021C17.1809 21.0264 16.5684 22.4139 15.3434 23.3646C14.1184 24.3153 12.6017 24.9062 10.7934 25.1375V28.375H7.29336Z" fill="black"/>
</svg>
