<svg width="38" height="53" viewBox="0 0 38 53" fill="none" xmlns="http://www.w3.org/2000/svg">
<path d="M19.0002 25.1875C17.2321 25.1875 15.5364 24.4961 14.2861 23.2654C13.0359 22.0347 12.3335 20.3655 12.3335 18.625C12.3335 16.8845 13.0359 15.2153 14.2861 13.9846C15.5364 12.7539 17.2321 12.0625 19.0002 12.0625C20.7683 12.0625 22.464 12.7539 23.7142 13.9846C24.9644 15.2153 25.6668 16.8845 25.6668 18.625C25.6668 19.4868 25.4944 20.3402 25.1594 21.1364C24.8243 21.9326 24.3333 22.656 23.7142 23.2654C23.0951 23.8748 22.3602 24.3582 21.5514 24.688C20.7425 25.0178 19.8756 25.1875 19.0002 25.1875ZM19.0002 0.25C14.0495 0.25 9.30151 2.18593 5.80084 5.63191C2.30016 9.07789 0.333496 13.7516 0.333496 18.625C0.333496 32.4062 19.0002 52.75 19.0002 52.75C19.0002 52.75 37.6668 32.4062 37.6668 18.625C37.6668 13.7516 35.7002 9.07789 32.1995 5.63191C28.6988 2.18593 23.9509 0.25 19.0002 0.25Z" fill="white"/>
</svg>
