<svg width="27" height="19" viewBox="0 0 27 19" fill="none" xmlns="http://www.w3.org/2000/svg">
<path d="M9.85919 13.0625L4.25298 7.625C3.78043 7.16667 3.20048 6.9375 2.51313 6.9375C1.82578 6.9375 1.22434 7.1875 0.708831 7.6875C0.236277 8.14584 0 8.72917 0 9.4375C0 10.1458 0.236277 10.7292 0.708831 11.1875L8.05489 18.3125C8.52745 18.7708 9.12888 19 9.85919 19C10.5895 19 11.1909 18.7708 11.6635 18.3125L26.2912 4.125C26.7637 3.66667 27 3.10417 27 2.4375C27 1.77083 26.7422 1.1875 26.2267 0.687502C25.7542 0.229169 25.1527 0 24.4224 0C23.6921 0 23.0907 0.229169 22.6181 0.687502L9.85919 13.0625Z" fill="#3BED1E"/>
</svg>
