<svg width="103" height="89" viewBox="0 0 103 89" fill="none" xmlns="http://www.w3.org/2000/svg">
<mask id="path-1-inside-1_535_3514" fill="white">
<path d="M56.125 55.75H46.875V32.625H56.125M56.125 74.25H46.875V65H56.125M0.625 88.125H102.375L51.5 0.25L0.625 88.125Z"/>
</mask>
<path d="M56.125 55.75H46.875V32.625H56.125M56.125 74.25H46.875V65H56.125M0.625 88.125H102.375L51.5 0.25L0.625 88.125Z" fill="#A00A4C"/>
<path d="M46.875 55.75H44.875V57.75H46.875V55.75ZM46.875 32.625V30.625H44.875V32.625H46.875ZM46.875 74.25H44.875V76.25H46.875V74.25ZM46.875 65V63H44.875V65H46.875ZM0.625 88.125L-1.10585 87.1229L-2.84389 90.125H0.625V88.125ZM102.375 88.125V90.125H105.844L104.106 87.1229L102.375 88.125ZM51.5 0.25L53.2309 -0.752073L51.5 -3.74173L49.7691 -0.752073L51.5 0.25ZM56.125 53.75H46.875V57.75H56.125V53.75ZM48.875 55.75V32.625H44.875V55.75H48.875ZM46.875 34.625H56.125V30.625H46.875V34.625ZM56.125 72.25H46.875V76.25H56.125V72.25ZM48.875 74.25V65H44.875V74.25H48.875ZM46.875 67H56.125V63H46.875V67ZM0.625 90.125H102.375V86.125H0.625V90.125ZM104.106 87.1229L53.2309 -0.752073L49.7691 1.25207L100.644 89.1271L104.106 87.1229ZM49.7691 -0.752073L-1.10585 87.1229L2.35585 89.1271L53.2309 1.25207L49.7691 -0.752073Z" fill="black" mask="url(#path-1-inside-1_535_3514)"/>
</svg>
