<svg width="76" height="86" viewBox="0 0 76 86" fill="none" xmlns="http://www.w3.org/2000/svg">
<path d="M65.4512 50.7744L65.6133 51.0986L65.8788 51.3452L72.9881 57.9501L72.9894 57.9512C73.0767 58.0322 73.1465 58.1304 73.1942 58.2395L75.0267 57.4384L73.1942 58.2395C73.2419 58.3487 73.2666 58.4665 73.2667 58.5856V83.1333C73.2667 83.3632 73.1754 83.5836 73.0129 83.7462C72.8503 83.9087 72.6299 84 72.4001 84H60.5656C60.5184 83.9577 60.4546 83.8916 60.3834 83.7967C60.2758 83.6532 60.1862 83.4902 60.1278 83.3401C60.0737 83.2009 60.0675 83.1281 60.0668 83.1281C60.0668 83.1281 60.0667 83.1285 60.0667 83.1294V80.2667V78.2667H58.0667H17.9334H15.9334V80.2667V83.5011C15.8911 83.5484 15.825 83.6121 15.7301 83.6833C15.5866 83.7909 15.4236 83.8805 15.2735 83.9389C15.1343 83.993 15.0615 83.9992 15.0615 83.9999C15.0615 84 15.062 84 15.0631 84H3.60006C3.37021 84 3.14977 83.9087 2.98724 83.7462C2.82471 83.5836 2.7334 83.3632 2.7334 83.1333V58.5848C2.73366 58.4659 2.75836 58.3484 2.80596 58.2395C2.85368 58.1304 2.92339 58.0322 3.01073 57.9512L3.012 57.9501L10.1213 51.3452L10.3868 51.0986L10.5489 50.7744L16.8124 38.2474C17.1708 37.6894 17.662 37.2283 18.2425 36.9058C18.8461 36.5705 19.5258 36.3963 20.2161 36.4H20.2267L55.7734 36.4L55.784 36.4C56.4744 36.3963 57.1541 36.5705 57.7576 36.9058C58.3381 37.2283 58.8293 37.6894 59.1877 38.2475L65.4512 50.7744ZM15.9892 83.4287C15.9893 83.4286 15.9887 83.4297 15.9873 83.4321C15.9885 83.4299 15.9891 83.4288 15.9892 83.4287ZM20.8001 38.1333H19.564L19.0112 39.2389L13.2779 50.7056L11.8307 53.6H15.0667H60.9334H64.1695L62.7222 50.7056L56.9889 39.2389L56.4361 38.1333H55.2001H20.8001ZM4.56936 58.9942L4.46673 59.3021V59.6267V65.9333C4.46673 67.0673 4.98271 68.1957 5.5834 68.9967C6.1416 69.7409 7.23346 70.8 8.76007 70.8H20.8001C21.934 70.8 23.0625 70.284 23.8634 69.6833C24.6077 69.1251 25.6667 68.0333 25.6667 66.5067V62.4933C25.6667 61.3594 25.1508 60.2309 24.5501 59.43C24.022 58.7259 23.0162 57.74 21.6166 57.6357L10.4066 55.3937C9.00544 54.9674 7.6492 55.2006 6.55673 56.02C5.53464 56.7866 4.92534 57.9263 4.56936 58.9942ZM71.5334 59.6267V59.3021L71.4308 58.9942C71.0748 57.9263 70.4655 56.7866 69.4434 56.02C68.3509 55.2006 66.9947 54.9674 65.5936 55.3937L54.3836 57.6357C52.9839 57.74 51.9782 58.7259 51.4501 59.43C50.8494 60.2309 50.3334 61.3594 50.3334 62.4933V66.5067C50.3334 68.0333 51.3925 69.1251 52.1367 69.6833C52.9377 70.284 54.0661 70.8 55.2001 70.8H67.2401C68.7667 70.8 69.8585 69.7409 70.4167 68.9967C71.0174 68.1957 71.5334 67.0673 71.5334 65.9333V59.6267ZM44.0385 2L39.3052 20.9333H36.695L31.9616 2H44.0385ZM4.5646 10.7494L14.9712 4.74563L20.156 23.5993L18.3283 24.5131L4.5646 10.7494ZM55.2848 23.6866L60.9762 4.71522L71.4747 10.772L57.6959 25.026L55.2848 23.6866Z" stroke="black" stroke-width="4"/>
</svg>
