<svg width="105" height="84" viewBox="0 0 105 84" fill="none" xmlns="http://www.w3.org/2000/svg">
<path d="M52.4253 0.957642C30.7212 0.957642 15.7887 10.5074 1.06717 27.325C17.6987 22.4137 34.3179 19.4867 50.813 19.2139C51.4083 19.2139 52.0036 19.1891 52.5989 19.1891C68.0274 19.1147 83.3567 21.3471 98.562 26.4569C94.0227 21.9424 89.9796 17.0807 85.2667 12.8639C77.6765 6.16663 68.5483 0.957642 52.4253 0.957642ZM60.8837 24.0508C61.3951 25.2243 61.657 26.4914 61.6526 27.7715C61.6471 28.6887 61.505 29.5999 61.2309 30.4752C60.8646 29.6704 60.2747 28.9877 59.5316 28.5084C58.7884 28.0291 57.9233 27.7733 57.0389 27.7715C56.4311 27.7718 55.8292 27.8922 55.268 28.1257C54.7068 28.3593 54.1972 28.7013 53.7685 29.1323C53.3398 29.5633 53.0005 30.0747 52.77 30.6372C52.5395 31.1996 52.4223 31.8021 52.4253 32.41C52.4271 33.2943 52.6828 34.1595 53.1621 34.9026C53.6415 35.6458 54.3241 36.2356 55.129 36.602C54.2524 36.8676 53.3412 37.0014 52.4253 36.9989C51.2117 37.0011 50.0096 36.7642 48.8877 36.3016C47.7657 35.839 46.746 35.1598 45.8867 34.3028C45.0274 33.4459 44.3455 32.4279 43.8799 31.3072C43.4143 30.1865 43.1741 28.9851 43.1731 27.7715C43.1745 26.5265 43.4276 25.2947 43.9173 24.15C41.4616 24.2989 39.0059 24.5221 36.5751 24.7701C36.3766 25.7623 36.2774 26.7545 36.2774 27.7715C36.2774 36.726 43.4708 43.8946 52.4253 43.8946C61.3798 43.8946 68.5483 36.726 68.5483 27.7715C68.5483 26.7049 68.4491 25.6383 68.2259 24.6213C65.795 24.3485 63.3145 24.1748 60.8837 24.0508ZM73.0876 25.2166C73.1868 26.06 73.2364 26.9033 73.2364 27.7715C73.2364 39.2313 63.885 48.5826 52.4253 48.5826C40.9655 48.5826 31.6389 39.2313 31.6389 27.7715C31.6389 26.953 31.6886 26.1592 31.7878 25.3655C21.3698 26.8041 10.9444 29.2102 0.429688 32.3852C16.6817 40.3723 34.5163 50.4182 52.4253 50.4182C67.6057 50.4182 82.563 46.9455 103.027 33.0549C93.0802 29.2102 83.1087 26.6305 73.0876 25.2166ZM104.565 37.6686C100.794 40.1739 97.1481 42.3567 93.6507 44.2666C77.7757 62.7709 53.7895 70.1379 27.3229 71.2293L27.5462 75.9174C54.9057 74.7764 80.6282 66.8885 97.545 46.8711C92.7825 59.844 82.3397 69.8403 71.5993 80.2086L74.8735 83.5821C88.1192 70.7828 102.159 57.5867 104.565 37.6686Z" fill="white"/>
</svg>
