<svg width="125" height="125" viewBox="0 0 125 125" fill="none" xmlns="http://www.w3.org/2000/svg">
<path d="M36.4583 52.0834H78.125M31.25 72.9167H36.4583M78.125 72.9167H83.3333" stroke="white" stroke-width="8" stroke-linecap="round" stroke-linejoin="round"/>
<path d="M31.2503 93.75H10.417M31.2503 93.75V106.25C31.2503 107.079 30.9211 107.874 30.335 108.46C29.749 109.046 28.9541 109.375 28.1253 109.375H13.542C12.7132 109.375 11.9183 109.046 11.3323 108.46C10.7462 107.874 10.417 107.079 10.417 106.25V93.75M31.2503 93.75H67.7087M10.417 93.75V59.4271C10.4181 58.0178 10.7051 56.6233 11.2607 55.3282L23.3389 27.1511C24.1411 25.2767 25.4758 23.679 27.1775 22.556C28.8791 21.433 30.873 20.834 32.9118 20.8334H81.6722C83.7113 20.8326 85.7058 21.4303 87.4085 22.5524C89.1111 23.6745 90.4469 25.2717 91.2503 27.1459L103.323 55.323C103.88 56.6213 104.167 58.0195 104.167 59.4323V65.1042" stroke="white" stroke-width="8" stroke-linecap="round"/>
<path d="M88.542 119.792C88.542 119.792 93.2295 103.552 104.167 93.75" stroke="white" stroke-width="8" stroke-linecap="round" stroke-linejoin="round"/>
<path d="M103.136 111.583L102.438 111.651C98.1999 112.046 93.9778 110.749 90.6932 108.042C87.4087 105.335 85.3284 101.438 84.9066 97.2032C84.6983 95.1121 84.9057 93.0005 85.5167 90.9898C86.1278 88.9792 87.1304 87.1093 88.4669 85.4876C89.8034 83.866 91.4475 82.5247 93.3044 81.5409C95.1613 80.5571 97.1944 79.9502 99.2868 79.7553L114.839 78.2969C115.319 78.2519 115.797 78.3987 116.169 78.7051C116.54 79.0116 116.776 79.4528 116.823 79.9323L118.151 93.3698C118.369 95.553 118.152 97.7577 117.514 99.8569C116.876 101.956 115.829 103.908 114.434 105.601C113.038 107.294 111.321 108.694 109.382 109.721C107.443 110.748 105.32 111.381 103.136 111.583Z" stroke="white" stroke-width="8" stroke-linecap="round" stroke-linejoin="round"/>
</svg>
