<svg width="29" height="29" viewBox="0 0 29 29" fill="none" xmlns="http://www.w3.org/2000/svg">
<path d="M9.42484 2.4165H19.5748C23.4415 2.4165 26.5832 5.55817 26.5832 9.42484V19.5748C26.5832 21.4336 25.8448 23.2162 24.5305 24.5305C23.2162 25.8448 21.4336 26.5832 19.5748 26.5832H9.42484C5.55817 26.5832 2.4165 23.4415 2.4165 19.5748V9.42484C2.4165 7.56611 3.15488 5.78351 4.4692 4.4692C5.78351 3.15488 7.56611 2.4165 9.42484 2.4165ZM9.18317 4.83317C8.02948 4.83317 6.92304 5.29147 6.10726 6.10726C5.29147 6.92304 4.83317 8.02948 4.83317 9.18317V19.8165C4.83317 22.2211 6.77859 24.1665 9.18317 24.1665H19.8165C20.9702 24.1665 22.0766 23.7082 22.8924 22.8924C23.7082 22.0766 24.1665 20.9702 24.1665 19.8165V9.18317C24.1665 6.77859 22.2211 4.83317 19.8165 4.83317H9.18317ZM20.8436 6.64567C21.2442 6.64567 21.6284 6.8048 21.9116 7.08806C22.1949 7.37132 22.354 7.7555 22.354 8.15609C22.354 8.55667 22.1949 8.94085 21.9116 9.22411C21.6284 9.50737 21.2442 9.6665 20.8436 9.6665C20.443 9.6665 20.0588 9.50737 19.7756 9.22411C19.4923 8.94085 19.3332 8.55667 19.3332 8.15609C19.3332 7.7555 19.4923 7.37132 19.7756 7.08806C20.0588 6.8048 20.443 6.64567 20.8436 6.64567ZM14.4998 8.45817C16.1022 8.45817 17.6389 9.0947 18.7719 10.2277C19.905 11.3608 20.5415 12.8975 20.5415 14.4998C20.5415 16.1022 19.905 17.6389 18.7719 18.7719C17.6389 19.905 16.1022 20.5415 14.4998 20.5415C12.8975 20.5415 11.3608 19.905 10.2277 18.7719C9.0947 17.6389 8.45817 16.1022 8.45817 14.4998C8.45817 12.8975 9.0947 11.3608 10.2277 10.2277C11.3608 9.0947 12.8975 8.45817 14.4998 8.45817ZM14.4998 10.8748C13.5384 10.8748 12.6164 11.2568 11.9366 11.9366C11.2568 12.6164 10.8748 13.5384 10.8748 14.4998C10.8748 15.4612 11.2568 16.3833 11.9366 17.0631C12.6164 17.7429 13.5384 18.1248 14.4998 18.1248C15.4612 18.1248 16.3833 17.7429 17.0631 17.0631C17.7429 16.3833 18.1248 15.4612 18.1248 14.4998C18.1248 13.5384 17.7429 12.6164 17.0631 11.9366C16.3833 11.2568 15.4612 10.8748 14.4998 10.8748Z" fill="white"/>
</svg>
