<svg width="51" height="97" viewBox="0 0 51 97" fill="none" xmlns="http://www.w3.org/2000/svg">
<path d="M20.3409 96.125V84.7479C15.6666 83.6896 11.6308 81.6611 8.23356 78.6625C4.83631 75.6639 2.34569 71.4306 0.761719 65.9625L10.5513 61.9937C11.8742 66.2271 13.8374 69.4462 16.4409 71.651C19.0444 73.8559 22.4611 74.9583 26.6909 74.9583C30.3069 74.9583 33.3725 74.1417 35.8878 72.5083C38.4031 70.8749 39.659 68.3402 39.6555 64.9042C39.6555 61.8174 38.6853 59.3708 36.7451 57.5646C34.8048 55.7584 30.3069 53.707 23.2513 51.4104C15.6666 49.0292 10.4631 46.184 7.64089 42.875C4.81866 39.5659 3.40755 35.5319 3.40755 30.7729C3.40755 25.0403 5.25964 20.5865 8.9638 17.4115C12.668 14.2365 16.4603 12.4285 20.3409 11.9875V0.875H30.9242V11.9875C35.3339 12.6931 38.9728 14.3035 41.8409 16.8188C44.709 19.3341 46.8027 22.398 48.1221 26.0104L38.3326 30.2437C37.2742 27.4215 35.7749 25.3049 33.8346 23.8937C31.8944 22.4826 29.2485 21.7771 25.8971 21.7771C22.0166 21.7771 19.0621 22.6379 17.0336 24.3594C15.0051 26.081 13.9909 28.2188 13.9909 30.7729C13.9909 33.6833 15.3138 35.9764 17.9596 37.6521C20.6055 39.3278 25.1916 41.0917 31.718 42.9437C37.8034 44.7076 42.4124 47.5087 45.5451 51.3469C48.6778 55.1851 50.2423 59.616 50.2388 64.6396C50.2388 70.9014 48.3867 75.6639 44.6826 78.9271C40.9784 82.1903 36.3923 84.2187 30.9242 85.0125V96.125H20.3409Z" fill="white"/>
</svg>