<svg width="107" height="117" viewBox="0 0 107 117" fill="none" xmlns="http://www.w3.org/2000/svg">
<path d="M96.125 53.7904V21.4584C96.125 18.6515 95.01 15.9596 93.0252 13.9748C91.0404 11.99 88.3485 10.875 85.5417 10.875H63.4225C61.2 4.73669 55.3792 0.291687 48.5 0.291687C41.6208 0.291687 35.8 4.73669 33.5775 10.875H11.4583C5.6375 10.875 0.875 15.6375 0.875 21.4584V95.5417C0.875 98.3486 1.99003 101.04 3.97479 103.025C5.95955 105.01 8.65146 106.125 11.4583 106.125H43.7904C50.4579 112.687 59.5596 116.708 69.6667 116.708C90.1454 116.708 106.708 100.145 106.708 79.6667C106.708 69.5596 102.687 60.4579 96.125 53.7904ZM48.5 10.875C51.4104 10.875 53.7917 13.2563 53.7917 16.1667C53.7917 19.0771 51.4104 21.4584 48.5 21.4584C45.5896 21.4584 43.2083 19.0771 43.2083 16.1667C43.2083 13.2563 45.5896 10.875 48.5 10.875ZM11.4583 95.5417V21.4584H22.0417V32.0417H74.9583V21.4584H85.5417V46.2234C80.7262 43.9479 75.3817 42.625 69.6667 42.625H22.0417V53.2084H43.7375C40.5625 56.2246 38.1283 59.8229 36.2233 63.7917H22.0417V74.375H33.0483C32.7838 76.1213 32.625 77.8675 32.625 79.6667C32.625 85.3817 33.9479 90.7263 36.2233 95.5417H11.4583ZM69.6667 106.125C55.0617 106.125 43.2083 94.2717 43.2083 79.6667C43.2083 65.0617 55.0617 53.2084 69.6667 53.2084C84.2717 53.2084 96.125 65.0617 96.125 79.6667C96.125 94.2717 84.2717 106.125 69.6667 106.125ZM72.3125 80.9896L87.4467 89.9325L83.4779 96.3884L64.375 84.9584V58.5H72.3125V80.9896Z" fill="white"/>
</svg>
