<svg width="84" height="98" viewBox="0 0 84 98" fill="none" xmlns="http://www.w3.org/2000/svg">
<path d="M67.0623 64.6718C64.6591 64.6732 62.2865 65.2102 60.1169 66.2437C57.9473 67.2772 56.0354 68.7812 54.5201 70.6464L31.2371 55.6874C32.3481 53.4543 32.9263 50.9941 32.9263 48.4999C32.9263 46.0057 32.3481 43.5455 31.2371 41.3124L54.5201 26.3534C57.13 29.5482 60.8643 31.6224 64.9558 32.1499C69.0473 32.6774 73.1855 31.6182 76.5204 29.1898C79.8554 26.7615 82.1339 23.1484 82.8881 19.0925C83.6422 15.0366 82.8147 10.846 80.5755 7.38118C78.3363 3.91639 74.8555 1.44051 70.8478 0.462055C66.8401 -0.516398 62.6099 0.0768508 59.026 2.11996C55.4421 4.16306 52.7765 7.50093 51.5768 11.448C50.3771 15.3951 50.7342 19.6517 52.5749 23.3437L29.2919 38.3026C27.1855 35.7098 24.3277 33.8329 21.1114 32.93C17.895 32.027 14.478 32.1423 11.3298 33.2599C8.18166 34.3776 5.45687 36.4427 3.5299 39.1716C1.60293 41.9005 0.568359 45.1592 0.568359 48.4999C0.568359 51.8406 1.60293 55.0993 3.5299 57.8282C5.45687 60.5571 8.18166 62.6222 11.3298 63.7399C14.478 64.8575 17.895 64.9728 21.1114 64.0698C24.3277 63.1669 27.1855 61.29 29.2919 58.6972L52.5749 73.6562C51.0121 76.8061 50.5186 80.3796 51.1691 83.8353C51.8195 87.2909 53.5786 90.4404 56.1798 92.8065C58.7809 95.1727 62.0824 96.6265 65.584 96.9479C69.0857 97.2692 72.5966 96.4405 75.585 94.5872C78.5733 92.734 80.8762 89.9573 82.1447 86.6777C83.4132 83.3981 83.5783 79.7945 82.6148 76.4127C81.6514 73.0309 79.612 70.0553 76.8055 67.9367C73.9991 65.8181 70.5786 64.6719 67.0623 64.6718ZM67.0623 3.57803C69.55 3.57803 71.9818 4.31572 74.0503 5.69783C76.1188 7.07993 77.7309 9.04436 78.6829 11.3427C79.6349 13.6411 79.884 16.1701 79.3987 18.61C78.9134 21.0499 77.7154 23.2911 75.9563 25.0502C74.1973 26.8093 71.956 28.0073 69.5161 28.4926C67.0762 28.9779 64.5472 28.7288 62.2488 27.7768C59.9505 26.8248 57.986 25.2127 56.6039 23.1442C55.2218 21.0757 54.4841 18.6439 54.4841 16.1562C54.4841 12.8202 55.8093 9.62094 58.1682 7.26208C60.527 4.90322 63.7263 3.57803 67.0623 3.57803ZM16.7498 61.078C14.262 61.078 11.8302 60.3403 9.76172 58.9582C7.69326 57.5761 6.08109 55.6117 5.12908 53.3133C4.17707 51.015 3.92798 48.486 4.41331 46.046C4.89864 43.6061 6.09659 41.3649 7.85568 39.6058C9.61476 37.8467 11.856 36.6488 14.2959 36.1635C16.7358 35.6781 19.2648 35.9272 21.5632 36.8792C23.8615 37.8312 25.826 39.4434 27.2081 41.5119C28.5902 43.5803 29.3279 46.0122 29.3279 48.4999C29.3279 51.8358 28.0027 55.0351 25.6438 57.394C23.285 59.7528 20.0857 61.078 16.7498 61.078ZM67.0623 93.4218C64.5745 93.4218 62.1427 92.6841 60.0742 91.302C58.0058 89.9199 56.3936 87.9554 55.4416 85.6571C54.4896 83.3587 54.2405 80.8297 54.7258 78.3898C55.2111 75.9499 56.4091 73.7087 58.1682 71.9496C59.9273 70.1905 62.1685 68.9925 64.6084 68.5072C67.0483 68.0219 69.5773 68.271 71.8757 69.223C74.174 70.175 76.1385 71.7872 77.5206 73.8556C78.9027 75.9241 79.6404 78.3559 79.6404 80.8437C79.6404 84.1796 78.3152 87.3789 75.9563 89.7377C73.5975 92.0966 70.3982 93.4218 67.0623 93.4218Z" fill="white"/>
</svg>
