<svg width="66" height="60" viewBox="0 0 66 60" fill="none" xmlns="http://www.w3.org/2000/svg">
<path d="M14.025 41.5001H28.8333V47.8334H14.025H12.8312L13.6687 48.6842L19.0957 54.1973L14.6667 58.6263L0.707107 44.6667L14.6698 30.7041L19.1814 35.1366L13.6714 40.6465L12.8179 41.5001H14.025ZM37.1667 44.6679V44.6667C37.1667 43.754 37.4704 43.0118 38.0762 42.406C38.6819 41.8002 39.4226 41.4979 40.3322 41.5001H40.3333C41.246 41.5001 41.9883 41.8039 42.5941 42.4096C43.1998 43.0154 43.5021 43.7561 43.5 44.6656V44.6667C43.5 45.5795 43.1962 46.3217 42.5904 46.9275C41.9847 47.5332 41.244 47.8356 40.3345 47.8334H40.3333C39.4206 47.8334 38.6783 47.5296 38.0726 46.9239C37.4668 46.3181 37.1645 45.5774 37.1667 44.6679ZM54.9988 41.5001H55C55.9127 41.5001 56.655 41.8039 57.2608 42.4096C57.8665 43.0154 58.1688 43.7561 58.1667 44.6656V44.6667C58.1667 45.5795 57.8629 46.3217 57.2571 46.9275C56.6514 47.5332 55.9107 47.8356 55.0012 47.8334H55C54.0873 47.8334 53.345 47.5296 52.7392 46.9239C52.1335 46.3181 51.8312 45.5774 51.8333 44.6679V44.6667C51.8333 43.754 52.1371 43.0118 52.7429 42.406C53.3486 41.8002 54.0893 41.4979 54.9988 41.5001ZM51.3333 1.37386L65.2929 15.3334L51.3302 29.2961L46.8186 24.8636L52.3286 19.3536L53.1821 18.5001H51.975H37.1667V12.1667H51.975H53.1688L52.3313 11.316L46.9043 5.80285L51.3333 1.37386ZM7.83333 15.3346V15.3334C7.83333 14.4207 8.1371 13.6784 8.74289 13.0726C9.34861 12.4669 10.0893 12.1646 10.9988 12.1667H11C11.9127 12.1667 12.655 12.4705 13.2608 13.0763C13.8665 13.682 14.1688 14.4227 14.1667 15.3322V15.3334C14.1667 16.2461 13.8629 16.9884 13.2571 17.5942C12.6514 18.1999 11.9107 18.5022 11.0012 18.5001H11C10.0873 18.5001 9.345 18.1963 8.73922 17.5905C8.1335 16.9848 7.83119 16.2441 7.83333 15.3346ZM25.6655 12.1667H25.6667C26.5794 12.1667 27.3217 12.4705 27.9274 13.0763C28.5332 13.682 28.8355 14.4227 28.8333 15.3322V15.3334C28.8333 16.2461 28.5296 16.9884 27.9238 17.5942C27.3181 18.1999 26.5774 18.5022 25.6678 18.5001H25.6667C24.754 18.5001 24.0117 18.1963 23.4059 17.5905C22.8002 16.9848 22.4979 16.2441 22.5 15.3346V15.3334C22.5 14.4207 22.8038 13.6784 23.4096 13.0726C24.0153 12.4669 24.756 12.1646 25.6655 12.1667Z" fill="#5CBA2A" stroke="black"/>
</svg>
