<svg width="22" height="17" viewBox="0 0 22 17" fill="none" xmlns="http://www.w3.org/2000/svg">
<path d="M14 0.0488281C15.0609 0.0488281 16.0783 0.470255 16.8284 1.2204C17.5786 1.97055 18 2.98796 18 4.04883C18 5.10969 17.5786 6.12711 16.8284 6.87725C16.0783 7.6274 15.0609 8.04883 14 8.04883C12.9391 8.04883 11.9217 7.6274 11.1716 6.87725C10.4214 6.12711 10 5.10969 10 4.04883C10 2.98796 10.4214 1.97055 11.1716 1.2204C11.9217 0.470255 12.9391 0.0488281 14 0.0488281ZM14 1.94883C13.443 1.94883 12.9089 2.17008 12.5151 2.5639C12.1212 2.95773 11.9 3.49187 11.9 4.04883C11.9 4.60578 12.1212 5.13993 12.5151 5.53375C12.9089 5.92758 13.443 6.14883 14 6.14883C14.557 6.14883 15.0911 5.92758 15.4849 5.53375C15.8788 5.13993 16.1 4.60578 16.1 4.04883C16.1 3.49187 15.8788 2.95773 15.4849 2.5639C15.0911 2.17008 14.557 1.94883 14 1.94883ZM14 9.04883C16.67 9.04883 22 10.3788 22 13.0488V16.0488H6V13.0488C6 10.3788 11.33 9.04883 14 9.04883ZM14 10.9488C11 10.9488 7.9 12.4088 7.9 13.0488V14.1488H20.1V13.0488C20.1 12.4088 16.97 10.9488 14 10.9488ZM4 9.32883L1.5 10.8188L2.18 8.00883L0 6.12883L2.87 5.87883L4 3.23883L5.11 5.87883L8 6.12883L5.8 8.00883L6.45 10.8188L4 9.32883Z" fill="black"/>
</svg>
