<svg width="15" height="21" viewBox="0 0 15 21" fill="none" xmlns="http://www.w3.org/2000/svg">
<path d="M12.844 18.3511H4.5C3.121 18.3511 2 17.2301 2 15.8511C2 14.4721 3.121 13.3511 4.5 13.3511H11.5C13.43 13.3511 15 11.7811 15 9.85107C15 7.92107 13.43 6.35107 11.5 6.35107H6.639C6.27175 7.07096 5.81697 7.74271 5.285 8.35107H11.5C12.327 8.35107 13 9.02407 13 9.85107C13 10.6781 12.327 11.3511 11.5 11.3511H4.5C2.019 11.3511 0 13.3701 0 15.8511C0 18.3321 2.019 20.3511 4.5 20.3511H14.093C13.6023 19.7338 13.1833 19.0629 12.844 18.3511ZM3 0.351074C1.346 0.351074 0 1.69707 0 3.35107C0 6.53907 3 8.35107 3 8.35107C3 8.35107 6 6.53807 6 3.35107C6 1.69707 4.654 0.351074 3 0.351074ZM3 4.85107C2.80295 4.85101 2.60785 4.81213 2.42582 4.73666C2.2438 4.6612 2.07842 4.55062 1.93913 4.41123C1.79984 4.27185 1.68937 4.1064 1.61403 3.92433C1.53868 3.74225 1.49993 3.54712 1.5 3.35007C1.50007 3.15303 1.53894 2.95792 1.61441 2.7759C1.68988 2.59387 1.80046 2.42849 1.93984 2.28921C2.07922 2.14992 2.24467 2.03945 2.42675 1.9641C2.60882 1.88876 2.80395 1.85001 3.001 1.85007C3.39896 1.85021 3.78056 2.00842 4.06187 2.28991C4.34317 2.57141 4.50113 2.95312 4.501 3.35107C4.50087 3.74903 4.34265 4.13064 4.06116 4.41194C3.77967 4.69325 3.39796 4.85121 3 4.85107Z" fill="black"/>
</svg>
