<svg width="105" height="105" viewBox="0 0 105 105" fill="none" xmlns="http://www.w3.org/2000/svg">
<path d="M45.15 61.95L33.7312 50.5312C32.7687 49.5687 31.5875 49.0875 30.1875 49.0875C28.7875 49.0875 27.5625 49.6125 26.5125 50.6625C25.55 51.625 25.0687 52.85 25.0687 54.3375C25.0687 55.825 25.55 57.05 26.5125 58.0125L41.475 72.975C42.4375 73.9375 43.6625 74.4187 45.15 74.4187C46.6375 74.4187 47.8625 73.9375 48.825 72.975L78.6187 43.1812C79.5812 42.2188 80.0625 41.0375 80.0625 39.6375C80.0625 38.2375 79.5375 37.0125 78.4875 35.9625C77.525 35 76.3 34.5187 74.8125 34.5187C73.325 34.5187 72.1 35 71.1375 35.9625L45.15 61.95ZM52.5 105C45.2375 105 38.4125 103.621 32.025 100.863C25.6375 98.105 20.0812 94.3652 15.3562 89.6437C10.6313 84.9187 6.8915 79.3625 4.137 72.975C1.3825 66.5875 0.0035 59.7625 0 52.5C0 45.2375 1.379 38.4125 4.137 32.025C6.895 25.6375 10.6348 20.0812 15.3562 15.3562C20.0812 10.6313 25.6375 6.8915 32.025 4.137C38.4125 1.3825 45.2375 0.0035 52.5 0C59.7625 0 66.5875 1.379 72.975 4.137C79.3625 6.895 84.9187 10.6348 89.6437 15.3562C94.3687 20.0812 98.1102 25.6375 100.868 32.025C103.626 38.4125 105.003 45.2375 105 52.5C105 59.7625 103.621 66.5875 100.863 72.975C98.105 79.3625 94.3652 84.9187 89.6437 89.6437C84.9187 94.3687 79.3625 98.1102 72.975 100.868C66.5875 103.626 59.7625 105.003 52.5 105Z" fill="#3BED1E"/>
</svg>
