<svg width="20" height="22" viewBox="0 0 20 22" fill="none" xmlns="http://www.w3.org/2000/svg">
<path d="M0 5V0H5V2H2V5H0ZM18 5V2H15V0H20V5H18ZM0 22V17H2V20H5V22H0ZM15 22V20H18V17H20V22H15ZM5 17H15V5H5V17ZM5 19C4.45 19 3.979 18.804 3.587 18.412C3.195 18.02 2.99933 17.5493 3 17V5C3 4.45 3.196 3.979 3.588 3.587C3.98 3.195 4.45067 2.99933 5 3H15C15.55 3 16.021 3.196 16.413 3.588C16.805 3.98 17.0007 4.45067 17 5V17C17 17.55 16.804 18.021 16.412 18.413C16.02 18.805 15.5493 19.0007 15 19H5ZM7 9H13V7H7V9ZM7 12H13V10H7V12ZM7 15H13V13H7V15Z" fill="#616161"/>
</svg>
