<svg width="34" height="34" viewBox="0 0 34 34" fill="none" xmlns="http://www.w3.org/2000/svg">
<g clip-path="url(#clip0_215_1003)">
<path d="M0 3.83098V29.8497L19.9886 34V0L0 3.83098ZM10.0704 22.8914C3.71606 22.4856 4.37051 11.1438 10.2187 11.0537C16.4838 11.4637 15.8691 22.8009 10.0704 22.8914ZM10.162 13.2743C6.81435 13.5045 6.96423 20.6061 10.1103 20.663C13.4435 20.4503 13.2478 13.3295 10.162 13.2743ZM23.3945 17.7975C23.6963 18.0171 24.0599 17.7975 24.0599 17.7975C23.6975 18.0171 33.9601 11.2669 33.9601 11.2669V23.4903C33.9601 24.8209 33.0999 25.379 32.1327 25.379H21.2511L21.2518 16.3405L23.3945 17.7975ZM21.2523 7.20866V13.8593L23.5994 15.3226C23.6613 15.3406 23.7954 15.3418 23.8573 15.3226L33.9587 8.57882C33.9587 7.78075 33.2069 7.20866 32.7826 7.20866H21.2523Z" fill="#16A000"/>
</g>
<defs>
<clipPath id="clip0_215_1003">
<rect width="34" height="34" fill="white"/>
</clipPath>
</defs>
</svg>
